<svg width="20" height="22" viewBox="0 0 20 22" fill="none" xmlns="http://www.w3.org/2000/svg">
<path d="M4.29864 10.5331C4.23741 11.8128 4.3078 13.1749 3.26844 14.0324C2.7847 14.4315 2.5 15.0578 2.5 15.7229C2.5 16.6379 3.1515 17.4163 4 17.4163H16C16.8485 17.4163 17.5 16.6379 17.5 15.7229C17.5 15.0578 17.2153 14.4315 16.7316 14.0324C15.6922 13.1749 15.7626 11.8128 15.7014 10.5331C15.5418 7.19755 13.0365 4.58301 10 4.58301C6.96348 4.58301 4.45824 7.19755 4.29864 10.5331Z" stroke="#434343" stroke-width="1.5" stroke-linecap="round" stroke-linejoin="round"/>
<path d="M8.75 2.86426C8.75 3.62365 9.30964 4.58301 10 4.58301C10.6904 4.58301 11.25 3.62365 11.25 2.86426C11.25 2.10487 10.6904 1.83301 10 1.83301C9.30964 1.83301 8.75 2.10487 8.75 2.86426Z" stroke="#434343" stroke-width="1.5"/>
<path d="M12.5 17.4165C12.5 18.9353 11.3807 20.1665 10 20.1665C8.61929 20.1665 7.5 18.9353 7.5 17.4165" stroke="#434343" stroke-width="1.5" stroke-linecap="round" stroke-linejoin="round"/>
</svg>
